<?xml version="1.0" encoding="UTF-8"?>
<svg width="150px" height="150px" viewBox="0 0 150 150" version="1.1" xmlns="http://www.w3.org/2000/svg" xmlns:xlink="http://www.w3.org/1999/xlink">
    <!-- Generator: Sketch 57.1 (83088) - https://sketch.com -->
    <title>Logo</title>
    <desc>Created with Sketch.</desc>
    <g id="Page-1" stroke="none" stroke-width="1" fill="none" fill-rule="evenodd">
        <g id="Logo" transform="translate(0.000125, 0.000000)">
            <polygon id="Background" fill="#000000" points="0 150 150 150 150 0 0 0"></polygon>
            <g id="Container" transform="translate(8.000000, 3.000000)" fill="#FFFFFF">
                <path d="M46.7988749,80 C44.4438749,79.98 41.7208749,78.122 41.1638749,76.464 C40.6098749,74.814 41.5078749,71.98 43.1008749,70.882 C46.4168749,68.596 51.5048749,71.149 51.9728749,74.029 C52.1508749,75.126 51.4248749,76.503 50.7758749,77.555 C49.8188749,79.106 48.1878749,79.819 46.7988749,80 Z" id="Eye-Left"></path>
                <path d="M75.8858749,78.999 C73.7978749,78.804 71.6288749,78.857 70.0338749,77.232 C68.9328749,76.109 68.6538749,74.422 69.4758749,73.149 C69.9178749,72.464 70.4448749,71.81 71.0308749,71.227 C72.7128749,69.557 75.5078749,69.583 77.7398749,71.359 C78.9408749,72.315 80.0368749,73.397 79.9988749,75.066 C79.9598749,76.822 77.6718749,79.043 75.8858749,78.999 Z" id="Eye-Right"></path>
                <path d="M20.0868749,103.191 C15.9848749,103.256 12.1598749,102.188 8.73487493,100.113 C6.43387493,98.72 4.35287493,96.854 2.44987493,94.923 C0.415874927,92.859 0.212874927,89.969 0.0388749268,87.223 C-0.241125073,82.796 1.03787493,78.648 2.38187493,74.493 C3.58287493,70.783 6.16187493,68.073 8.47187493,65.146 C10.1498749,63.021 11.9918749,61.004 14.4308749,59.825 C16.4538749,58.846 18.6228749,58.018 20.8158749,57.596 C22.9968749,57.177 25.2928749,57.236 27.5308749,57.31 C28.5208749,57.343 29.5448749,57.823 30.4598749,58.287 C32.6408749,59.394 34.7808749,60.586 36.9068749,61.799 C37.9108749,62.371 38.4388749,63.168 37.8498749,64.425 C37.2388749,65.728 35.6868749,65.874 34.7088749,65.408 C33.1498749,64.667 31.6098749,63.87 30.1268749,62.987 C28.1368749,61.803 25.9918749,61.467 23.8198749,61.974 C20.4658749,62.757 17.0568749,63.628 14.6328749,66.348 C12.3368749,68.925 9.86687493,71.45 8.11887493,74.389 C6.49087493,77.125 5.58987493,80.342 5.47487493,83.655 C5.43987493,84.662 5.40687493,85.671 5.35287493,86.677 C5.13287493,90.721 6.76187493,93.734 10.2578749,95.727 C15.1248749,98.501 20.2218749,98.576 25.5468749,97.357 C28.0168749,96.792 29.3488749,95.373 30.0108749,93.116 C30.6388749,90.977 31.1908749,88.812 31.6898749,86.638 C31.9028749,85.709 31.5658749,85.05 30.4368749,84.999 C27.6818749,84.875 24.9298749,84.696 22.1768749,84.528 C21.4988749,84.487 20.8068749,84.475 20.1518749,84.318 C18.8538749,84.008 17.9668749,82.786 18.1008749,81.628 C18.2228749,80.57 19.2168749,79.672 20.5298749,79.615 C22.1188749,79.547 23.7128749,79.59 25.3038749,79.605 C28.1938749,79.632 31.0858749,79.614 33.9728749,79.733 C35.7648749,79.807 37.6808749,81.256 37.3218749,83.894 C36.8498749,87.358 36.2518749,90.843 35.2708749,94.189 C33.8128749,99.164 30.4138749,102.119 25.1738749,102.671 C23.4788749,102.85 21.7818749,103.018 20.0868749,103.191 Z" id="Letter-G"></path>
                <path d="M107.499304,69.4812868 C107.534886,69.8992226 107.533398,70.3154348 107.502959,71.4480068 C107.485387,72.1017801 107.478668,72.4451388 107.478668,72.856536 C107.478668,74.4203271 107.533666,75.6535172 107.681542,78.0312807 C107.756935,79.2435591 107.779269,79.6192283 107.808196,80.2042903 C107.852791,81.1062378 107.875353,81.8814854 107.875353,82.6288961 C107.875353,85.3707955 107.432529,87.7927572 106.425637,91.2753947 C106.318884,91.6446331 106.204917,92.0304708 106.062643,92.5059039 C105.987876,92.7557544 105.726487,93.6249042 105.684542,93.7647857 C105.134104,95.6003887 104.802197,96.7779844 104.48576,98.0795214 C104.087973,99.7156575 100.82968,101.714467 98.1170521,101.714467 C91.8685016,101.714467 87.9534315,100.186621 86.9123147,97.1581404 C86.5276577,96.0392204 86.6582963,95.2052834 87.4068364,94.5024641 C88.3530095,93.6140831 88.3998594,92.1268832 87.5114784,91.18071 C86.6230974,90.2345368 85.1358975,90.187687 84.1897243,91.076068 C81.9607405,93.1689056 81.5256813,95.9461253 82.4676222,98.6861156 C84.3573587,104.183127 90.0751168,106.414467 98.1170521,106.414467 C102.812765,106.414467 108.082142,103.181952 109.052721,99.1898674 C109.344987,97.9877485 109.65802,96.8771154 110.186489,95.1147732 C110.227542,94.9778691 110.48946,94.1069583 110.565355,93.8533423 C110.711475,93.3650547 110.829336,92.9660354 110.940719,92.5807841 C112.059607,88.7107714 112.575353,85.8899743 112.575353,82.6288961 C112.575353,81.7961604 112.550613,80.9460578 112.502462,79.9721924 C112.47217,79.3595136 112.449224,78.9735506 112.372479,77.739545 C112.230341,75.4540432 112.178668,74.2954105 112.178668,72.856536 C112.178668,72.4998519 112.18478,72.1875162 112.201262,71.5742815 C112.284995,68.458818 112.205843,67.5290965 111.202011,66.2733949 C110.100986,64.896112 108.608558,64.2986438 106.773723,64.1487832 C106.26682,64.1073818 105.876974,64.1018345 105.104358,64.1090042 C104.619989,64.1134991 104.435383,64.112267 104.261607,64.1011898 C101.343196,63.9151593 99.7536276,63.9714039 92.4166441,64.3892212 C89.6896732,64.5445133 87.7923234,64.6344765 85.7305409,64.6939327 C84.4332111,64.7313442 83.4118454,65.8133658 83.4492569,67.1106956 C83.4866683,68.4080255 84.5686899,69.4293911 85.8660198,69.3919797 C87.9805487,69.3310025 89.9167149,69.2391987 92.6838608,69.0816188 C99.7838631,68.6772968 101.317207,68.6230417 103.962618,68.7916702 C104.294097,68.8127999 104.540167,68.8144422 105.147972,68.8088018 C105.780775,68.8029296 106.071307,68.8070637 106.391123,68.8331847 C106.959113,68.8795754 107.27479,68.9791853 107.451097,69.1269207 C107.469307,69.2109192 107.486386,69.3295431 107.499304,69.4812868 Z" id="Letter-J" fill-rule="nonzero"></path>
                <path d="M61.7485687,115.188177 C61.9936242,112.872033 62.1239054,110.703358 62.1239054,108.108189 C62.1239054,102.758584 62.2688292,98.4226675 62.6616598,90.0229616 L62.6967387,89.2736734 C63.0868652,80.944264 63.2272608,77.0891747 63.2671096,72.0188616 C63.2775265,70.6934191 62.2114877,69.6104911 60.8860453,69.5999984 C59.5606028,69.5896572 58.4776748,70.655696 58.4672578,71.9811384 C58.4280491,76.9700119 58.2892932,80.7800787 57.901995,89.0491009 L57.8669004,89.7987242 C57.4707615,98.2691712 57.3239054,102.662898 57.3239054,108.108189 C57.3239054,110.52155 57.2035502,112.524997 56.9752116,114.683141 C56.9417678,114.999235 56.9075015,115.306643 56.8621959,115.701356 C56.8955006,115.411198 56.7801338,116.41265 56.7570351,116.618741 C56.6769358,117.333403 56.6331,117.80976 56.6122009,118.257511 C56.5485326,119.62157 56.7193551,120.648883 57.3401676,121.608937 C58.268857,123.045107 59.2423696,123.150789 63.5502277,123.204622 C65.5769041,123.229948 67.1212058,123.20684 72.7971857,123.090594 C75.149603,123.042416 76.6153556,123.01581 78.1592888,122.996072 C79.4847182,122.979127 80.7008013,122.970322 81.8471156,122.970322 C83.172599,122.970322 84.2471156,121.895806 84.2471156,120.570322 C84.2471156,119.244839 83.172599,118.170322 81.8471156,118.170322 C80.6788304,118.170322 79.4426611,118.179273 78.0979299,118.196464 C76.5385675,118.216399 75.0627828,118.243188 72.6989014,118.291601 C67.0930353,118.40641 65.5595562,118.429357 63.6102058,118.404997 C62.7154034,118.393815 61.9851605,118.36859 61.421035,118.32926 C61.4729965,117.806235 61.5706085,116.87017 61.7485687,115.188177 Z" id="Letter-L" fill-rule="nonzero"></path>
                <path d="M51.2052231,13.9818371 C51.0692231,14.6718371 50.8822231,15.3568371 50.8072231,16.0538371 C50.4602231,19.2738371 50.1372231,22.4978371 49.8242231,25.7218371 C49.7712231,26.2718371 49.7762231,26.8318371 49.8082231,27.3848371 C50.1142231,32.6698371 50.4992231,37.9518371 50.7162231,43.2418371 C50.8132231,45.5998371 50.5852231,47.9738371 50.4972231,50.3398371 C50.4442231,51.7738371 49.5352231,52.6398371 48.4292231,53.2328371 C47.4242231,53.7718371 45.7162231,52.4668371 45.5862231,50.9638371 C45.4552231,49.4458371 45.6282231,47.9028371 45.6122231,46.3708371 C45.5752231,42.7528371 45.5512231,39.1338371 45.4342231,35.5178371 C45.3492231,32.8768371 45.0252231,30.2418371 44.9998749,27.6018371 C44.9862231,26.0888371 45.3982231,24.5768371 45.5442231,23.0568371 C45.8042231,20.3318371 46.1122231,17.6038371 46.2072231,14.8698371 C46.3052231,12.0528371 46.1892231,9.22683706 46.1302231,6.40583706 C46.1072231,5.33283706 46.1052231,4.26983706 47.3012231,3.86683706 C48.5272231,3.45383706 49.6672231,3.47083706 50.5922231,4.69783706 C52.7542231,7.56583706 54.9112231,10.4438371 57.2152231,13.1918371 C60.0502231,16.5738371 63.0372231,19.8228371 65.9462231,23.1398371 C66.6562231,23.9508371 67.2692231,23.8728371 67.7702231,22.9708371 C69.0902231,20.5898371 70.3762231,18.1888371 71.6832231,15.8008371 C74.2082231,11.1858371 76.7082231,6.55683706 79.2862231,1.97383706 C79.8752231,0.924837059 80.5122231,-0.306162941 82.1072231,0.0688370588 C83.8362231,0.475837059 84.2712231,1.28683706 84.6712231,3.33783706 C86.0642231,10.4658371 86.0112231,17.6758371 85.9952231,24.8828371 C85.9812231,31.4318371 85.8552231,37.9818371 85.7432231,44.5308371 C85.7052231,46.7128371 85.5362231,48.8928371 85.4702231,51.0758371 C85.4172231,52.8608371 84.2482231,54.0708371 82.5672231,53.9968371 C81.1172231,53.9328371 79.6222231,52.3118371 79.7452231,50.8168371 C79.8322231,49.7548371 80.1782231,48.7128371 80.2432231,47.6518371 C80.4932231,43.5698371 80.7642231,39.4858371 80.8642231,35.3978371 C80.9852231,30.4308371 80.9422231,25.4588371 80.9702231,20.4898371 C80.9852231,17.7468371 81.0242231,15.0038371 80.9872231,12.2618371 C80.9812231,11.8218371 80.6342231,11.3868371 80.4452231,10.9498371 C80.0922231,11.2538371 79.6122231,11.4878371 79.4062231,11.8748371 C77.8652231,14.7658371 76.4062231,17.7028371 74.8632231,20.5938371 C74.0002231,22.2078371 72.9662231,23.7278371 72.1232231,25.3528371 C71.4012231,26.7428371 70.7722231,28.1958371 70.2362231,29.6718371 C69.8832231,30.6458371 69.7442231,31.7748371 68.5002231,31.8788371 C67.1452231,31.9928371 65.8932231,31.6618371 64.9612231,30.4888371 C60.7852231,25.2298371 56.5912231,19.9868371 52.4112231,14.7328371 C52.1832231,14.4468371 52.0222231,14.1058371 51.8292231,13.7908371 C51.6212231,13.8548371 51.4132231,13.9188371 51.2052231,13.9818371 Z" id="Letter-M"></path>
            </g>
        </g>
    </g>
</svg>